<?xml version="1.0" standalone="no"?>
<!DOCTYPE svg PUBLIC "-//W3C//DTD SVG 20010904//EN"
 "http://www.w3.org/TR/2001/REC-SVG-20010904/DTD/svg10.dtd">
<svg version="1.0" xmlns="http://www.w3.org/2000/svg"
 width="512.000000pt" height="512.000000pt" viewBox="0 0 512.000000 512.000000"
 preserveAspectRatio="xMidYMid meet">

<g transform="translate(0.000000,512.000000) scale(0.100000,-0.100000)"
fill="#A9FFA7" stroke="none">
<path d="M645 4603 c-41 -10 -83 -52 -99 -100 -14 -41 -16 -140 -15 -872 0
-608 4 -835 12 -859 17 -46 62 -90 105 -102 24 -6 335 -10 882 -10 942 0 889
-4 937 69 l23 34 0 864 c0 949 3 908 -61 954 l-34 24 -865 1 c-476 1 -874 0
-885 -3z m1255 -968 l0 -105 -385 0 -385 0 0 105 0 105 385 0 385 0 0 -105z"/>
<path d="M2745 4603 c-36 -9 -77 -45 -91 -79 -12 -28 -14 -341 -14 -1969 0
-2126 -4 -1979 61 -2026 l34 -24 886 -3 886 -2 27 21 c14 11 35 38 46 60 20
38 20 67 20 1957 0 2138 5 1984 -68 2040 l-35 27 -866 1 c-476 1 -875 0 -886
-3z m1245 -1718 l0 -105 -385 0 -385 0 0 105 0 105 385 0 385 0 0 -105z m0
-480 l0 -105 -385 0 -385 0 0 105 0 105 385 0 385 0 0 -105z"/>
<path d="M645 2443 c-41 -10 -83 -52 -99 -100 -14 -41 -16 -140 -15 -872 0
-608 4 -835 12 -859 17 -46 62 -90 105 -102 24 -6 335 -10 882 -10 942 0 889
-4 937 69 l23 34 0 864 c0 949 3 908 -61 954 l-34 24 -865 1 c-476 1 -874 0
-885 -3z m975 -723 l0 -140 140 0 140 0 0 -105 0 -105 -140 0 -140 0 0 -140 0
-140 -105 0 -105 0 0 140 0 140 -140 0 -140 0 0 105 0 105 140 0 140 0 0 140
0 140 105 0 105 0 0 -140z"/>
</g>
</svg>
